PathFileType	4	(X/Y/Z)	OpenSim_Sub03_CSBaseline_Magnet.trc
DataRate	CameraRate	NumFrames	NumMarkers	Units	OrigDataRate	OrigDataStartFrame	OrigNumFrames
100	100	26	8	m	100	2323	9288
Frame#	Time	torso_imu_offset_imu	pelvis_imu_offset_imu	tibia_r_imu_offset_imu	femur_r_imu_offset_imu	tibia_l_imu_offset_imu	femur_l_imu_offset_imu	toes_r_imu_offset_imu	toes_l_imu_offset_imu
				X1	Y1	Z1	X2	Y2	Z2	X3	Y3	Z3	X4	Y4	Z4	X5	Y5	Z5	X6	Y6	Z6	X7	Y7	Z7	X8		Y8	Z8	

2323	23.22000000	-0.90881558	-0.15309094	0.21188578	-0.74071837	0.14924825	-0.56362605	-0.32326210	-0.75886756	-0.02207705	-0.50169481	-0.77693744	-0.05345741	-0.73957229	0.26365933	0.17927723	-0.76729529	0.22077898	0.25168924	-0.71851967	-0.40533156	-0.08022532	-0.72515807	-0.07382908	-0.35841286
2324	23.23000000	-0.90353986	-0.15046672	0.20653830	-0.74508268	0.14348169	-0.56658403	-0.30812560	-0.76637963	-0.02928904	-0.50741045	-0.76629784	-0.05612791	-0.73512488	0.27698781	0.17855227	-0.76854399	0.22616042	0.25488499	-0.71355454	-0.42610800	-0.04017946	-0.71952413	-0.07111715	-0.35564544
2325	23.24000000	-0.90199362	-0.15474516	0.20370457	-0.73970163	0.13826033	-0.56191355	-0.28792666	-0.77480529	-0.03473174	-0.51555329	-0.75608371	-0.06276174	-0.73456211	0.28803831	0.18295001	-0.76571541	0.23036658	0.25349509	-0.70208438	-0.44788077	-0.00700374	-0.71711175	-0.07590850	-0.35698026
2326	23.25000000	-0.90350556	-0.15344684	0.20200693	-0.74481800	0.13786878	-0.55924535	-0.27119575	-0.78253092	-0.03925046	-0.53210829	-0.74513907	-0.07236474	-0.72650865	0.29699981	0.18322097	-0.76308536	0.23322284	0.25888458	-0.68173477	-0.46957706	0.03188551	-0.71904429	-0.07821524	-0.35988385
2327	23.26000000	-0.90733926	-0.15595683	0.19964236	-0.74714852	0.13144013	-0.56126147	-0.25738061	-0.78411319	-0.04655517	-0.54222779	-0.73343766	-0.07906928	-0.72319250	0.30225070	0.18422126	-0.76251195	0.24286175	0.26282192	-0.66904353	-0.49247293	0.07657077	-0.71946451	-0.08272411	-0.35629118
2328	23.27000000	-0.90548262	-0.16042135	0.19015318	-0.75025608	0.13279045	-0.55640889	-0.24240603	-0.78788433	-0.05134424	-0.55260658	-0.72212660	-0.08749738	-0.72442400	0.31486292	0.18745543	-0.75430268	0.24517151	0.26805723	-0.64985761	-0.51185847	0.11330139	-0.72021157	-0.08322835	-0.35993328
2329	23.28000000	-0.90518842	-0.15850092	0.19390899	-0.74707585	0.12927613	-0.55202850	-0.22906035	-0.79445920	-0.04991721	-0.56568913	-0.70718024	-0.09607447	-0.71611555	0.32258116	0.18657095	-0.76126878	0.25598851	0.26981091	-0.62454824	-0.53534201	0.15510936	-0.71526059	-0.08140005	-0.35200845
2330	23.29000000	-0.90477672	-0.16105939	0.18519304	-0.74582725	0.13260666	-0.55839940	-0.20570988	-0.79316949	-0.04757126	-0.58115702	-0.68888646	-0.10185274	-0.71193935	0.32671317	0.18994964	-0.75161831	0.26443334	0.26586320	-0.59780103	-0.55289694	0.17665949	-0.71497959	-0.08118300	-0.35501408
2331	23.30000000	-0.90060143	-0.15887959	0.18152831	-0.74541596	0.13374452	-0.56149151	-0.19244279	-0.80207974	-0.04490777	-0.59048642	-0.66621198	-0.10842801	-0.71225666	0.34185414	0.19690104	-0.74760813	0.26638770	0.26977509	-0.57048231	-0.56965710	0.20536079	-0.71634935	-0.08330393	-0.35571631
2332	23.31000000	-0.90516417	-0.15715289	0.18347205	-0.74347423	0.13450774	-0.56163370	-0.18225280	-0.80278580	-0.04782096	-0.60290134	-0.65015173	-0.11182097	-0.70571733	0.34748564	0.20074892	-0.74157922	0.27153579	0.27350555	-0.54070872	-0.58479831	0.22731674	-0.71778943	-0.08874863	-0.35983650
2333	23.32000000	-0.90396411	-0.16016097	0.18464163	-0.74479268	0.13985200	-0.55952904	-0.16457542	-0.80776800	-0.05162173	-0.61148137	-0.64137249	-0.12106607	-0.69810692	0.34900976	0.20227837	-0.74164638	0.27972487	0.27562714	-0.51730423	-0.60146013	0.24198448	-0.71955693	-0.08342366	-0.35815688
2334	23.33000000	-0.90490440	-0.15915929	0.18822974	-0.74526335	0.14090694	-0.55881101	-0.15201723	-0.80501831	-0.05255484	-0.62304983	-0.62697861	-0.12763142	-0.69759875	0.36086790	0.20715556	-0.73858612	0.28889750	0.27683622	-0.49833053	-0.60989924	0.24520820	-0.71325476	-0.08010825	-0.35773246
2335	23.34000000	-0.90684914	-0.16333725	0.18799626	-0.74060487	0.13415134	-0.56231788	-0.14051406	-0.80543231	-0.06251219	-0.63288546	-0.60565621	-0.13058962	-0.69717522	0.36255005	0.20784014	-0.73265322	0.28968942	0.28238298	-0.49839511	-0.61728583	0.22969483	-0.71534035	-0.08371876	-0.35780104
2336	23.35000000	-0.90579084	-0.16159659	0.18762953	-0.73937639	0.13514931	-0.55698336	-0.13123104	-0.80577245	-0.06473099	-0.63943242	-0.59508444	-0.13397925	-0.69450259	0.36544616	0.21098939	-0.73281848	0.28889725	0.28613180	-0.50232337	-0.61978995	0.22366652	-0.72000898	-0.08130071	-0.35598057
2337	23.36000000	-0.89948242	-0.16132552	0.18953886	-0.74023078	0.14168341	-0.55694439	-0.13123138	-0.80387921	-0.07674670	-0.64920065	-0.58086846	-0.12533215	-0.68883880	0.36885177	0.21262402	-0.72920987	0.29226489	0.28504003	-0.50438581	-0.61498578	0.22023116	-0.72012209	-0.08103066	-0.36266515
2338	23.37000000	-0.89712567	-0.16504536	0.19183389	-0.74280100	0.14416277	-0.54983929	-0.12323810	-0.80204295	-0.09265497	-0.65533048	-0.56585004	-0.12480811	-0.68375629	0.38149866	0.22130770	-0.73028458	0.29788738	0.30276314	-0.50606662	-0.60415448	0.21774712	-0.71990747	-0.07918581	-0.36038677
2339	23.38000000	-0.90207731	-0.16494428	0.18748687	-0.74412720	0.14461871	-0.55168028	-0.12051056	-0.80422517	-0.09918741	-0.65586710	-0.55540822	-0.12321663	-0.68148220	0.38342697	0.22257988	-0.72082343	0.29885873	0.30293096	-0.51125818	-0.59439400	0.21256275	-0.72325836	-0.07899632	-0.36068960
2340	23.39000000	-0.90044885	-0.16811503	0.18825411	-0.74535792	0.15114430	-0.55165158	-0.12827475	-0.79771320	-0.09685159	-0.66553014	-0.54396236	-0.11837141	-0.67733635	0.38797813	0.22219685	-0.72117727	0.30747632	0.30168200	-0.52508104	-0.58323118	0.20608386	-0.72121027	-0.07619463	-0.36303956
2341	23.40000000	-0.90507672	-0.17171352	0.18886434	-0.74514487	0.15748739	-0.55335921	-0.13356466	-0.79679886	-0.09114935	-0.67216120	-0.53541424	-0.11347721	-0.67582564	0.39555177	0.22812773	-0.71749859	0.30577090	0.30494611	-0.53776966	-0.56866511	0.20350414	-0.72451734	-0.07521824	-0.35902418
2342	23.41000000	-0.90196709	-0.17032204	0.19027215	-0.73936865	0.15654659	-0.54457678	-0.13394181	-0.79710153	-0.07562181	-0.67294623	-0.52185300	-0.11180638	-0.67288135	0.39734899	0.23026548	-0.71593850	0.31391021	0.30946238	-0.55080553	-0.55031104	0.20089844	-0.72546561	-0.07327336	-0.36338874
2343	23.42000000	-0.89805261	-0.16926469	0.18716284	-0.74102784	0.16162930	-0.54697654	-0.14225840	-0.79650202	-0.05871937	-0.67962726	-0.50736742	-0.09805763	-0.66842508	0.40744800	0.23436575	-0.71193738	0.31958563	0.31362706	-0.56846967	-0.53378520	0.18865635	-0.72794095	-0.07228118	-0.36533980
2344	23.43000000	-0.90307056	-0.17174680	0.18658013	-0.74309128	0.16730176	-0.54858203	-0.16117701	-0.79487842	-0.03714155	-0.67972947	-0.49742078	-0.09665224	-0.66408472	0.41212238	0.23428327	-0.71197945	0.32790520	0.30927143	-0.59128322	-0.51984794	0.17461621	-0.73158058	-0.07673146	-0.36502297
2345	23.44000000	-0.90401606	-0.17404405	0.18375922	-0.74176613	0.16514323	-0.54882763	-0.16532595	-0.79467412	-0.02494314	-0.69144583	-0.48946385	-0.09079479	-0.65996167	0.41113500	0.23308367	-0.70443494	0.33669988	0.30496031	-0.61013368	-0.49512788	0.15741279	-0.72883309	-0.06822919	-0.36757135
2346	23.45000000	-0.90391299	-0.17457266	0.17743510	-0.74131066	0.16782108	-0.55146224	-0.18175159	-0.78833188	-0.00590151	-0.69619974	-0.47017072	-0.08790072	-0.65937060	0.42285187	0.23461846	-0.70560073	0.33904790	0.31729528	-0.62919133	-0.48110272	0.14380246	-0.73257267	-0.06731436	-0.35889925
2347	23.46000000	-0.90321033	-0.17413293	0.17898729	-0.74104353	0.17105720	-0.55441190	-0.20546962	-0.78189358	-0.00170078	-0.69908506	-0.45549469	-0.07905923	-0.65753440	0.42029063	0.23475243	-0.70165422	0.34629827	0.31847485	-0.64423829	-0.45991312	0.12499319	-0.73559088	-0.06684615	-0.35415001
2348	23.47000000	-0.90144874	-0.17695385	0.17469002	-0.73214068	0.17734252	-0.55494678	-0.21887861	-0.77835806	0.00452453	-0.70394519	-0.44906303	-0.07781038	-0.65064044	0.43160013	0.23773046	-0.69519897	0.34822578	0.31659885	-0.65539211	-0.44345308	0.09768593	-0.74534089	-0.06228178	-0.35583712
